  0
SECTION
  2
HEADER
  9
$ACADVER
  1
AC1014
  9
$HANDSEED
  5
FFFF
  9
$MEASUREMENT
 70
     1
  0
ENDSEC
  0
SECTION
  2
TABLES
  0
TABLE
  2
VPORT
  5
8
330
0
100
AcDbSymbolTable
 70
     4
  0
VPORT
  5
2E
330
8
100
AcDbSymbolTableRecord
100
AcDbViewportTableRecord
  2
*ACTIVE
 70
     0
 10
0.0
 20
0.0
 11
1.0
 21
1.0
 12
210.0
 22
148.5
 13
0.0
 23
0.0
 14
10.0
 24
10.0
 15
10.0
 25
10.0
 16
0.0
 26
0.0
 36
1.0
 17
0.0
 27
0.0
 37
0.0
 40
341.0
 41
1.24
 42
50.0
 43
0.0
 44
0.0
 50
0.0
 51
0.0
 71
     0
 72
   100
 73
     1
 74
     3
 75
     0
 76
     0
 77
     0
 78
     0
  0
ENDTAB
  0
TABLE
  2
LTYPE
  5
5
330
0
100
AcDbSymbolTable
 70
     1
  0
LTYPE
  5
14
330
5
100
AcDbSymbolTableRecord
100
AcDbLinetypeTableRecord
  2
BYBLOCK
 70
     0
  3

 72
    65
 73
     0
 40
0.0
  0
LTYPE
  5
15
330
5
100
AcDbSymbolTableRecord
100
AcDbLinetypeTableRecord
  2
BYLAYER
 70
     0
  3

 72
    65
 73
     0
 40
0.0
  0
LTYPE
  5
16
330
5
100
AcDbSymbolTableRecord
100
AcDbLinetypeTableRecord
  2
CONTINUOUS
 70
     0
  3
Solid line
 72
    65
 73
     0
 40
0.0
  0
ENDTAB
  0
TABLE
  2
LAYER
  5
2
100
AcDbSymbolTable
 70
2
  0
LAYER
  5
50
100
AcDbSymbolTableRecord
100
AcDbLayerTableRecord
  2
0
 70
0
  6
CONTINUOUS
  0
LAYER
  5
51
100
AcDbSymbolTableRecord
100
AcDbLayerTableRecord
  2
Layer_1
 70
0
  6
CONTINUOUS
  0
ENDTAB
  0
TABLE
  2
STYLE
  5
3
330
0
100
AcDbSymbolTable
 70
     1
  0
STYLE
  5
11
330
3
100
AcDbSymbolTableRecord
100
AcDbTextStyleTableRecord
  2
STANDARD
 70
     0
 40
0.0
 41
1.0
 50
0.0
 71
     0
 42
2.5
  3
txt
  4

  0
ENDTAB
  0
TABLE
  2
VIEW
  5
6
330
0
100
AcDbSymbolTable
 70
     0
  0
ENDTAB
  0
TABLE
  2
UCS
  5
7
330
0
100
AcDbSymbolTable
 70
     0
  0
ENDTAB
  0
TABLE
  2
APPID
  5
9
330
0
100
AcDbSymbolTable
 70
     2
  0
APPID
  5
12
330
9
100
AcDbSymbolTableRecord
100
AcDbRegAppTableRecord
  2
ACAD
 70
     0
  0
ENDTAB
  0
TABLE
  2
DIMSTYLE
  5
A
330
0
100
AcDbSymbolTable
 70
     1
  0
DIMSTYLE
105
27
330
A
100
AcDbSymbolTableRecord
100
AcDbDimStyleTableRecord
  2
ISO-25
 70
     0
  3

  4

  5

  6

  7

 40
1.0
 41
2.5
 42
0.625
 43
3.75
 44
1.25
 45
0.0
 46
0.0
 47
0.0
 48
0.0
140
2.5
141
2.5
142
0.0
143
0.03937007874016
144
1.0
145
0.0
146
1.0
147
0.625
 71
     0
 72
     0
 73
     0
 74
     0
 75
     0
 76
     0
 77
     1
 78
     8
170
     0
171
     3
172
     1
173
     0
174
     0
175
     0
176
     0
177
     0
178
     0
270
     2
271
     2
272
     2
273
     2
274
     3
340
11
275
     0
280
     0
281
     0
282
     0
283
     0
284
     8
285
     0
286
     0
287
     3
288
     0
  0
ENDTAB
  0
TABLE
  2
BLOCK_RECORD
  5
1
330
0
100
AcDbSymbolTable
 70
     1
  0
BLOCK_RECORD
  5
1F
330
1
100
AcDbSymbolTableRecord
100
AcDbBlockTableRecord
  2
*MODEL_SPACE
  0
BLOCK_RECORD
  5
1B
330
1
100
AcDbSymbolTableRecord
100
AcDbBlockTableRecord
  2
*PAPER_SPACE
  0
ENDTAB
  0
ENDSEC
  0
SECTION
  2
BLOCKS
  0
BLOCK
  5
20
330
1F
100
AcDbEntity
  8
0
100
AcDbBlockBegin
  2
*MODEL_SPACE
 70
     0
 10
0.0
 20
0.0
 30
0.0
  3
*MODEL_SPACE
  1

  0
ENDBLK
  5
21
330
1F
100
AcDbEntity
  8
0
100
AcDbBlockEnd
  0
BLOCK
  5
1C
330
1B
100
AcDbEntity
 67
     1
  8
0
100
AcDbBlockBegin
  2
*PAPER_SPACE
  1

  0
ENDBLK
  5
1D
330
1B
100
AcDbEntity
 67
     1
  8
0
100
AcDbBlockEnd
  0
ENDSEC
  0
SECTION
  2
ENTITIES
  0
LWPOLYLINE
  5
100
100
AcDbEntity
  8
Layer_1
 62
7
100
AcDbPolyline
 90
288
 70
1
 10
122.080300
 20
205.846180
 30
0.0
 10
122.884400
 20
205.647390
 30
0.0
 10
123.688000
 20
205.330020
 30
0.0
 10
123.688000
 20
204.714980
 30
0.0
 10
122.884400
 20
204.397610
 30
0.0
 10
122.080300
 20
204.198820
 30
0.0
 10
122.031400
 20
203.452560
 30
0.0
 10
122.802600
 20
203.150510
 30
0.0
 10
123.557900
 20
202.730970
 30
0.0
 10
123.477700
 20
202.121180
 30
0.0
 10
122.639500
 20
201.911430
 30
0.0
 10
121.816300
 20
201.819290
 30
0.0
 10
121.670400
 20
201.085800
 30
0.0
 10
122.395700
 20
200.685660
 30
0.0
 10
123.089800
 20
200.171120
 30
0.0
 10
122.930600
 20
199.577030
 30
0.0
 10
122.072200
 20
199.478470
 30
0.0
 10
121.244100
 20
199.494560
 30
0.0
 10
121.003700
 20
198.786400
 30
0.0
 10
121.670500
 20
198.295020
 30
0.0
 10
122.291500
 20
197.694280
 30
0.0
 10
122.056100
 20
197.126050
 30
0.0
 10
121.192200
 20
197.140380
 30
0.0
 10
120.373300
 20
197.264430
 30
0.0
 10
120.042500
 20
196.593690
 30
0.0
 10
120.639500
 20
196.019490
 30
0.0
 10
121.176700
 20
195.342830
 30
0.0
 10
120.869200
 20
194.810200
 30
0.0
 10
120.014600
 20
194.937100
 30
0.0
 10
119.218800
 20
195.167030
 30
0.0
 10
118.803300
 20
194.545200
 30
0.0
 10
119.320200
 20
193.898000
 30
0.0
 10
119.764600
 20
193.157000
 30
0.0
 10
119.390200
 20
192.669000
 30
0.0
 10
118.559400
 20
192.906500
 30
0.0
 10
117.800500
 20
193.238300
 30
0.0
 10
117.307400
 20
192.676000
 30
0.0
 10
117.735400
 20
191.966900
 30
0.0
 10
118.079200
 20
191.174200
 30
0.0
 10
117.644300
 20
190.739300
 30
0.0
 10
116.851600
 20
191.083100
 30
0.0
 10
116.142500
 20
191.511100
 30
0.0
 10
115.580200
 20
191.018000
 30
0.0
 10
115.912000
 20
190.259100
 30
0.0
 10
116.149500
 20
189.428300
 30
0.0
 10
115.661500
 20
189.053900
 30
0.0
 10
114.920500
 20
189.498300
 30
0.0
 10
114.273300
 20
190.015200
 30
0.0
 10
113.651470
 20
189.599700
 30
0.0
 10
113.881400
 20
188.803900
 30
0.0
 10
114.008300
 20
187.949300
 30
0.0
 10
113.475670
 20
187.641800
 30
0.0
 10
112.799010
 20
188.179000
 30
0.0
 10
112.224810
 20
188.776000
 30
0.0
 10
111.554070
 20
188.445200
 30
0.0
 10
111.678120
 20
187.626300
 30
0.0
 10
111.692450
 20
186.762400
 30
0.0
 10
111.124220
 20
186.527000
 30
0.0
 10
110.523480
 20
187.148000
 30
0.0
 10
110.032100
 20
187.814800
 30
0.0
 10
109.323940
 20
187.574400
 30
0.0
 10
109.340030
 20
186.746300
 30
0.0
 10
109.241470
 20
185.887900
 30
0.0
 10
108.647380
 20
185.728700
 30
0.0
 10
108.132840
 20
186.422800
 30
0.0
 10
107.732700
 20
187.148100
 30
0.0
 10
106.999210
 20
187.002200
 30
0.0
 10
106.907070
 20
186.179000
 30
0.0
 10
106.697320
 20
185.340800
 30
0.0
 10
106.087530
 20
185.260600
 30
0.0
 10
105.667990
 20
186.015900
 30
0.0
 10
105.365940
 20
186.787100
 30
0.0
 10
104.619680
 20
186.738200
 30
0.0
 10
104.420890
 20
185.934100
 30
0.0
 10
104.103520
 20
185.130500
 30
0.0
 10
103.488480
 20
185.130500
 30
0.0
 10
103.171110
 20
185.934100
 30
0.0
 10
102.972320
 20
186.738200
 30
0.0
 10
102.226060
 20
186.787100
 30
0.0
 10
101.924010
 20
186.015900
 30
0.0
 10
101.504470
 20
185.260600
 30
0.0
 10
100.894680
 20
185.340800
 30
0.0
 10
100.684930
 20
186.179000
 30
0.0
 10
100.592790
 20
187.002200
 30
0.0
 10
99.859300
 20
187.148100
 30
0.0
 10
99.459160
 20
186.422800
 30
0.0
 10
98.944620
 20
185.728700
 30
0.0
 10
98.350530
 20
185.887900
 30
0.0
 10
98.251970
 20
186.746300
 30
0.0
 10
98.268060
 20
187.574400
 30
0.0
 10
97.559900
 20
187.814800
 30
0.0
 10
97.068520
 20
187.148000
 30
0.0
 10
96.467780
 20
186.527000
 30
0.0
 10
95.899550
 20
186.762400
 30
0.0
 10
95.913880
 20
187.626300
 30
0.0
 10
96.037930
 20
188.445200
 30
0.0
 10
95.367190
 20
188.776000
 30
0.0
 10
94.792990
 20
188.179000
 30
0.0
 10
94.116330
 20
187.641800
 30
0.0
 10
93.583700
 20
187.949300
 30
0.0
 10
93.710600
 20
188.803900
 30
0.0
 10
93.940530
 20
189.599700
 30
0.0
 10
93.318700
 20
190.015200
 30
0.0
 10
92.671500
 20
189.498300
 30
0.0
 10
91.930500
 20
189.053900
 30
0.0
 10
91.442500
 20
189.428300
 30
0.0
 10
91.680000
 20
190.259100
 30
0.0
 10
92.011800
 20
191.018000
 30
0.0
 10
91.449500
 20
191.511100
 30
0.0
 10
90.740400
 20
191.083100
 30
0.0
 10
89.947700
 20
190.739300
 30
0.0
 10
89.512800
 20
191.174200
 30
0.0
 10
89.856600
 20
191.966900
 30
0.0
 10
90.284600
 20
192.676000
 30
0.0
 10
89.791500
 20
193.238300
 30
0.0
 10
89.032600
 20
192.906500
 30
0.0
 10
88.201800
 20
192.669000
 30
0.0
 10
87.827400
 20
193.157000
 30
0.0
 10
88.271800
 20
193.898000
 30
0.0
 10
88.788700
 20
194.545200
 30
0.0
 10
88.373200
 20
195.167030
 30
0.0
 10
87.577400
 20
194.937100
 30
0.0
 10
86.722800
 20
194.810200
 30
0.0
 10
86.415300
 20
195.342830
 30
0.0
 10
86.952500
 20
196.019490
 30
0.0
 10
87.549500
 20
196.593690
 30
0.0
 10
87.218700
 20
197.264430
 30
0.0
 10
86.399800
 20
197.140380
 30
0.0
 10
85.535900
 20
197.126050
 30
0.0
 10
85.300500
 20
197.694280
 30
0.0
 10
85.921500
 20
198.295020
 30
0.0
 10
86.588300
 20
198.786400
 30
0.0
 10
86.347900
 20
199.494560
 30
0.0
 10
85.519800
 20
199.478470
 30
0.0
 10
84.661400
 20
199.577030
 30
0.0
 10
84.502200
 20
200.171120
 30
0.0
 10
85.196300
 20
200.685660
 30
0.0
 10
85.921600
 20
201.085800
 30
0.0
 10
85.775700
 20
201.819290
 30
0.0
 10
84.952500
 20
201.911430
 30
0.0
 10
84.114300
 20
202.121180
 30
0.0
 10
84.034100
 20
202.730970
 30
0.0
 10
84.789400
 20
203.150510
 30
0.0
 10
85.560600
 20
203.452560
 30
0.0
 10
85.511700
 20
204.198820
 30
0.0
 10
84.707600
 20
204.397610
 30
0.0
 10
83.904000
 20
204.714980
 30
0.0
 10
83.904000
 20
205.330020
 30
0.0
 10
84.707600
 20
205.647390
 30
0.0
 10
85.511700
 20
205.846180
 30
0.0
 10
85.560600
 20
206.592440
 30
0.0
 10
84.789400
 20
206.894490
 30
0.0
 10
84.034100
 20
207.314030
 30
0.0
 10
84.114300
 20
207.923820
 30
0.0
 10
84.952500
 20
208.133570
 30
0.0
 10
85.775700
 20
208.225710
 30
0.0
 10
85.921600
 20
208.959200
 30
0.0
 10
85.196300
 20
209.359340
 30
0.0
 10
84.502200
 20
209.873880
 30
0.0
 10
84.661400
 20
210.467970
 30
0.0
 10
85.519800
 20
210.566530
 30
0.0
 10
86.347900
 20
210.550440
 30
0.0
 10
86.588300
 20
211.258600
 30
0.0
 10
85.921500
 20
211.749980
 30
0.0
 10
85.300500
 20
212.350720
 30
0.0
 10
85.535900
 20
212.918950
 30
0.0
 10
86.399800
 20
212.904620
 30
0.0
 10
87.218700
 20
212.780570
 30
0.0
 10
87.549500
 20
213.451310
 30
0.0
 10
86.952500
 20
214.025510
 30
0.0
 10
86.415300
 20
214.702170
 30
0.0
 10
86.722800
 20
215.234800
 30
0.0
 10
87.577400
 20
215.107900
 30
0.0
 10
88.373200
 20
214.877970
 30
0.0
 10
88.788700
 20
215.499800
 30
0.0
 10
88.271800
 20
216.147000
 30
0.0
 10
87.827400
 20
216.888000
 30
0.0
 10
88.201800
 20
217.376000
 30
0.0
 10
89.032600
 20
217.138500
 30
0.0
 10
89.791500
 20
216.806700
 30
0.0
 10
90.284600
 20
217.369000
 30
0.0
 10
89.856600
 20
218.078100
 30
0.0
 10
89.512800
 20
218.870800
 30
0.0
 10
89.947700
 20
219.305700
 30
0.0
 10
90.740400
 20
218.961900
 30
0.0
 10
91.449500
 20
218.533900
 30
0.0
 10
92.011800
 20
219.027000
 30
0.0
 10
91.680000
 20
219.785900
 30
0.0
 10
91.442500
 20
220.616700
 30
0.0
 10
91.930500
 20
220.991100
 30
0.0
 10
92.671500
 20
220.546700
 30
0.0
 10
93.318700
 20
220.029800
 30
0.0
 10
93.940530
 20
220.445300
 30
0.0
 10
93.710600
 20
221.241100
 30
0.0
 10
93.583700
 20
222.095700
 30
0.0
 10
94.116330
 20
222.403200
 30
0.0
 10
94.792990
 20
221.866000
 30
0.0
 10
95.367190
 20
221.269000
 30
0.0
 10
96.037930
 20
221.599800
 30
0.0
 10
95.913880
 20
222.418700
 30
0.0
 10
95.899550
 20
223.282600
 30
0.0
 10
96.467780
 20
223.518000
 30
0.0
 10
97.068520
 20
222.897000
 30
0.0
 10
97.559900
 20
222.230200
 30
0.0
 10
98.268060
 20
222.470600
 30
0.0
 10
98.251970
 20
223.298700
 30
0.0
 10
98.350530
 20
224.157100
 30
0.0
 10
98.944620
 20
224.316300
 30
0.0
 10
99.459160
 20
223.622200
 30
0.0
 10
99.859300
 20
222.896900
 30
0.0
 10
100.592790
 20
223.042800
 30
0.0
 10
100.684930
 20
223.866000
 30
0.0
 10
100.894680
 20
224.704200
 30
0.0
 10
101.504470
 20
224.784400
 30
0.0
 10
101.924010
 20
224.029100
 30
0.0
 10
102.226060
 20
223.257900
 30
0.0
 10
102.972320
 20
223.306800
 30
0.0
 10
103.171110
 20
224.110900
 30
0.0
 10
103.488480
 20
224.914500
 30
0.0
 10
104.103520
 20
224.914500
 30
0.0
 10
104.420890
 20
224.110900
 30
0.0
 10
104.619680
 20
223.306800
 30
0.0
 10
105.365940
 20
223.257900
 30
0.0
 10
105.667990
 20
224.029100
 30
0.0
 10
106.087530
 20
224.784400
 30
0.0
 10
106.697320
 20
224.704200
 30
0.0
 10
106.907070
 20
223.866000
 30
0.0
 10
106.999210
 20
223.042800
 30
0.0
 10
107.732700
 20
222.896900
 30
0.0
 10
108.132840
 20
223.622200
 30
0.0
 10
108.647380
 20
224.316300
 30
0.0
 10
109.241470
 20
224.157100
 30
0.0
 10
109.340030
 20
223.298700
 30
0.0
 10
109.323940
 20
222.470600
 30
0.0
 10
110.032100
 20
222.230200
 30
0.0
 10
110.523480
 20
222.897000
 30
0.0
 10
111.124220
 20
223.518000
 30
0.0
 10
111.692450
 20
223.282600
 30
0.0
 10
111.678120
 20
222.418700
 30
0.0
 10
111.554070
 20
221.599800
 30
0.0
 10
112.224810
 20
221.269000
 30
0.0
 10
112.799010
 20
221.866000
 30
0.0
 10
113.475670
 20
222.403200
 30
0.0
 10
114.008300
 20
222.095700
 30
0.0
 10
113.881400
 20
221.241100
 30
0.0
 10
113.651470
 20
220.445300
 30
0.0
 10
114.273300
 20
220.029800
 30
0.0
 10
114.920500
 20
220.546700
 30
0.0
 10
115.661500
 20
220.991100
 30
0.0
 10
116.149500
 20
220.616700
 30
0.0
 10
115.912000
 20
219.785900
 30
0.0
 10
115.580200
 20
219.027000
 30
0.0
 10
116.142500
 20
218.533900
 30
0.0
 10
116.851600
 20
218.961900
 30
0.0
 10
117.644300
 20
219.305700
 30
0.0
 10
118.079200
 20
218.870800
 30
0.0
 10
117.735400
 20
218.078100
 30
0.0
 10
117.307400
 20
217.369000
 30
0.0
 10
117.800500
 20
216.806700
 30
0.0
 10
118.559400
 20
217.138500
 30
0.0
 10
119.390200
 20
217.376000
 30
0.0
 10
119.764600
 20
216.888000
 30
0.0
 10
119.320200
 20
216.147000
 30
0.0
 10
118.803300
 20
215.499800
 30
0.0
 10
119.218800
 20
214.877970
 30
0.0
 10
120.014600
 20
215.107900
 30
0.0
 10
120.869200
 20
215.234800
 30
0.0
 10
121.176700
 20
214.702170
 30
0.0
 10
120.639500
 20
214.025510
 30
0.0
 10
120.042500
 20
213.451310
 30
0.0
 10
120.373300
 20
212.780570
 30
0.0
 10
121.192200
 20
212.904620
 30
0.0
 10
122.056100
 20
212.918950
 30
0.0
 10
122.291500
 20
212.350720
 30
0.0
 10
121.670500
 20
211.749980
 30
0.0
 10
121.003700
 20
211.258600
 30
0.0
 10
121.244100
 20
210.550440
 30
0.0
 10
122.072200
 20
210.566530
 30
0.0
 10
122.930600
 20
210.467970
 30
0.0
 10
123.089800
 20
209.873880
 30
0.0
 10
122.395700
 20
209.359340
 30
0.0
 10
121.670400
 20
208.959200
 30
0.0
 10
121.816300
 20
208.225710
 30
0.0
 10
122.639500
 20
208.133570
 30
0.0
 10
123.477700
 20
207.923820
 30
0.0
 10
123.557900
 20
207.314030
 30
0.0
 10
122.802600
 20
206.894490
 30
0.0
 10
122.031400
 20
206.592440
 30
0.0
  0
LWPOLYLINE
  5
101
100
AcDbEntity
  8
Layer_1
 62
7
100
AcDbPolyline
 90
1
 70
1
 10
103.796000
 20
214.471319
 30
0.0
  0
SPLINE
  5
102
100
AcDbEntity
  8
Layer_1
 62
7
100
AcDbSpline
 70
0
 71
3
 72
25
 73
21
 74
19
 40
0.000000
 40
0.000000
 40
0.000000
 40
0.000000
 40
3.708826
 40
7.351608
 40
11.060434
 40
14.769260
 40
18.412042
 40
22.120868
 40
25.829694
 40
29.472476
 40
33.181302
 40
36.890128
 40
40.532910
 40
44.241736
 40
46.715199
 40
49.168194
 40
51.641658
 40
54.115121
 40
56.568116
 40
59.041579
 40
59.041579
 40
59.041579
 40
59.041579
 10
103.796000
 20
214.471319
 30
0.0
 10
102.551742
 20
214.327743
 30
0.0
 10
100.085384
 20
214.043147
 30
0.0
 10
96.942378
 20
211.859975
 30
0.0
 10
94.836403
 20
208.738476
 30
0.0
 10
94.102396
 20
205.020123
 30
0.0
 10
94.839849
 20
201.314293
 30
0.0
 10
96.938621
 20
198.165031
 30
0.0
 10
100.087455
 20
196.066367
 30
0.0
 10
103.794873
 20
195.328912
 30
0.0
 10
107.507214
 20
196.062817
 30
0.0
 10
110.651104
 20
198.169202
 30
0.0
 10
112.751667
 20
201.310691
 30
0.0
 10
113.409645
 20
204.611958
 30
0.0
 10
113.027153
 20
207.495811
 30
0.0
 10
112.072832
 20
209.800503
 30
0.0
 10
110.554493
 20
211.783071
 30
0.0
 10
108.574418
 20
213.291467
 30
0.0
 10
106.269707
 20
214.282873
 30
0.0
 10
104.622850
 20
214.408330
 30
0.0
 10
103.796000
 20
214.471319
 30
0.0
 11
103.796000
 21
214.471319
 31
0.0
 11
100.159248
 21
213.743700
 31
0.0
 11
97.130386
 21
211.719879
 31
0.0
 11
95.066430
 21
208.638406
 31
0.0
 11
94.346937
 21
205.000039
 31
0.0
 11
95.057608
 21
201.427252
 31
0.0
 11
97.114676
 21
198.341176
 31
0.0
 11
100.200752
 21
196.284108
 31
0.0
 11
103.773539
 21
195.573437
 31
0.0
 11
107.411906
 21
196.292930
 31
0.0
 11
110.493379
 21
198.356886
 31
0.0
 11
112.517200
 21
201.385748
 31
0.0
 11
113.244819
 21
205.022500
 31
0.0
 11
112.921097
 21
207.474688
 31
0.0
 11
111.982377
 21
209.740960
 31
0.0
 11
110.477324
 21
211.703824
 31
0.0
 11
108.514460
 21
213.208877
 31
0.0
 11
106.248188
 21
214.147597
 31
0.0
 11
103.796000
 21
214.471319
 31
0.0
  0
LWPOLYLINE
  5
103
100
AcDbEntity
  8
Layer_1
 62
7
100
AcDbPolyline
 90
360
 70
1
 10
125.831000
 20
100.014460
 30
0.0
 10
126.634100
 20
99.795930
 30
0.0
 10
127.436000
 20
99.483600
 30
0.0
 10
127.436000
 20
98.858400
 30
0.0
 10
126.634100
 20
98.546070
 30
0.0
 10
125.831000
 20
98.327540
 30
0.0
 10
125.792900
 20
97.599200
 30
0.0
 10
126.568600
 20
97.297930
 30
0.0
 10
127.333600
 20
96.903480
 30
0.0
 10
127.268200
 20
96.281710
 30
0.0
 10
126.438000
 20
96.054920
 30
0.0
 10
125.616500
 20
95.921520
 30
0.0
 10
125.502500
 20
95.201160
 30
0.0
 10
126.242500
 20
94.820450
 30
0.0
 10
126.962000
 20
94.348200
 30
0.0
 10
126.832000
 20
93.736670
 30
0.0
 10
125.982600
 20
93.597900
 30
0.0
 10
125.151700
 20
93.551100
 30
0.0
 10
124.963000
 20
92.846610
 30
0.0
 10
125.659100
 20
92.390630
 30
0.0
 10
126.325300
 20
91.845760
 30
0.0
 10
126.132200
 20
91.251170
 30
0.0
 10
125.272900
 20
91.201950
 30
0.0
 10
124.441700
 20
91.242260
 30
0.0
 10
124.180300
 20
90.561360
 30
0.0
 10
124.825000
 20
90.035110
 30
0.0
 10
125.430600
 20
89.423580
 30
0.0
 10
125.176300
 20
88.852400
 30
0.0
 10
124.316600
 20
88.893300
 30
0.0
 10
123.494200
 20
89.020300
 30
0.0
 10
123.163100
 20
88.370400
 30
0.0
 10
123.749200
 20
87.779700
 30
0.0
 10
124.287600
 20
87.108200
 30
0.0
 10
123.975000
 20
86.566800
 30
0.0
 10
123.124300
 20
86.697300
 30
0.0
 10
122.319600
 20
86.909500
 30
0.0
 10
121.922400
 20
86.297800
 30
0.0
 10
122.443600
 20
85.649000
 30
0.0
 10
122.908800
 20
84.925000
 30
0.0
 10
122.541300
 20
84.419200
 30
0.0
 10
121.708900
 20
84.637900
 30
0.0
 10
120.930800
 20
84.933100
 30
0.0
 10
120.471800
 20
84.366300
 30
0.0
 10
120.922400
 20
83.666600
 30
0.0
 10
121.309400
 20
82.897800
 30
0.0
 10
120.891000
 20
82.433200
 30
0.0
 10
120.086000
 20
82.737700
 30
0.0
 10
119.343100
 20
83.112700
 30
0.0
 10
118.827300
 20
82.596900
 30
0.0
 10
119.202300
 20
81.854000
 30
0.0
 10
119.506800
 20
81.049000
 30
0.0
 10
119.042200
 20
80.630600
 30
0.0
 10
118.273400
 20
81.017600
 30
0.0
 10
117.573700
 20
81.468200
 30
0.0
 10
117.006900
 20
81.009200
 30
0.0
 10
117.302100
 20
80.231100
 30
0.0
 10
117.520800
 20
79.398700
 30
0.0
 10
117.015000
 20
79.031200
 30
0.0
 10
116.291000
 20
79.496400
 30
0.0
 10
115.642200
 20
80.017600
 30
0.0
 10
115.030500
 20
79.620400
 30
0.0
 10
115.242700
 20
78.815700
 30
0.0
 10
115.373200
 20
77.965000
 30
0.0
 10
114.831800
 20
77.652400
 30
0.0
 10
114.160300
 20
78.190800
 30
0.0
 10
113.569600
 20
78.776900
 30
0.0
 10
112.919700
 20
78.445800
 30
0.0
 10
113.046700
 20
77.623400
 30
0.0
 10
113.087600
 20
76.763700
 30
0.0
 10
112.516420
 20
76.509400
 30
0.0
 10
111.904890
 20
77.115000
 30
0.0
 10
111.378640
 20
77.759700
 30
0.0
 10
110.697740
 20
77.498300
 30
0.0
 10
110.738050
 20
76.667100
 30
0.0
 10
110.688830
 20
75.807800
 30
0.0
 10
110.094240
 20
75.614700
 30
0.0
 10
109.549370
 20
76.280900
 30
0.0
 10
109.093390
 20
76.977000
 30
0.0
 10
108.388900
 20
76.788300
 30
0.0
 10
108.342100
 20
75.957400
 30
0.0
 10
108.203330
 20
75.108000
 30
0.0
 10
107.591800
 20
74.978000
 30
0.0
 10
107.119550
 20
75.697500
 30
0.0
 10
106.738840
 20
76.437500
 30
0.0
 10
106.018480
 20
76.323500
 30
0.0
 10
105.885080
 20
75.502000
 30
0.0
 10
105.658290
 20
74.671800
 30
0.0
 10
105.036520
 20
74.606400
 30
0.0
 10
104.642070
 20
75.371400
 30
0.0
 10
104.340800
 20
76.147100
 30
0.0
 10
103.612460
 20
76.109000
 30
0.0
 10
103.393930
 20
75.305900
 30
0.0
 10
103.081600
 20
74.504000
 30
0.0
 10
102.456400
 20
74.504000
 30
0.0
 10
102.144070
 20
75.305900
 30
0.0
 10
101.925540
 20
76.109000
 30
0.0
 10
101.197200
 20
76.147100
 30
0.0
 10
100.895930
 20
75.371400
 30
0.0
 10
100.501480
 20
74.606400
 30
0.0
 10
99.879710
 20
74.671800
 30
0.0
 10
99.652920
 20
75.502000
 30
0.0
 10
99.519520
 20
76.323500
 30
0.0
 10
98.799160
 20
76.437500
 30
0.0
 10
98.418450
 20
75.697500
 30
0.0
 10
97.946200
 20
74.978000
 30
0.0
 10
97.334670
 20
75.108000
 30
0.0
 10
97.195900
 20
75.957400
 30
0.0
 10
97.149100
 20
76.788300
 30
0.0
 10
96.444610
 20
76.977000
 30
0.0
 10
95.988630
 20
76.280900
 30
0.0
 10
95.443760
 20
75.614700
 30
0.0
 10
94.849170
 20
75.807800
 30
0.0
 10
94.799950
 20
76.667100
 30
0.0
 10
94.840260
 20
77.498300
 30
0.0
 10
94.159360
 20
77.759700
 30
0.0
 10
93.633110
 20
77.115000
 30
0.0
 10
93.021580
 20
76.509400
 30
0.0
 10
92.450400
 20
76.763700
 30
0.0
 10
92.491300
 20
77.623400
 30
0.0
 10
92.618300
 20
78.445800
 30
0.0
 10
91.968400
 20
78.776900
 30
0.0
 10
91.377700
 20
78.190800
 30
0.0
 10
90.706200
 20
77.652400
 30
0.0
 10
90.164800
 20
77.965000
 30
0.0
 10
90.295300
 20
78.815700
 30
0.0
 10
90.507500
 20
79.620400
 30
0.0
 10
89.895800
 20
80.017600
 30
0.0
 10
89.247000
 20
79.496400
 30
0.0
 10
88.523000
 20
79.031200
 30
0.0
 10
88.017200
 20
79.398700
 30
0.0
 10
88.235900
 20
80.231100
 30
0.0
 10
88.531100
 20
81.009200
 30
0.0
 10
87.964300
 20
81.468200
 30
0.0
 10
87.264600
 20
81.017600
 30
0.0
 10
86.495800
 20
80.630600
 30
0.0
 10
86.031200
 20
81.049000
 30
0.0
 10
86.335700
 20
81.854000
 30
0.0
 10
86.710700
 20
82.596900
 30
0.0
 10
86.194900
 20
83.112700
 30
0.0
 10
85.452000
 20
82.737700
 30
0.0
 10
84.647000
 20
82.433200
 30
0.0
 10
84.228600
 20
82.897800
 30
0.0
 10
84.615600
 20
83.666600
 30
0.0
 10
85.066200
 20
84.366300
 30
0.0
 10
84.607200
 20
84.933100
 30
0.0
 10
83.829100
 20
84.637900
 30
0.0
 10
82.996700
 20
84.419200
 30
0.0
 10
82.629200
 20
84.925000
 30
0.0
 10
83.094400
 20
85.649000
 30
0.0
 10
83.615600
 20
86.297800
 30
0.0
 10
83.218400
 20
86.909500
 30
0.0
 10
82.413700
 20
86.697300
 30
0.0
 10
81.563000
 20
86.566800
 30
0.0
 10
81.250400
 20
87.108200
 30
0.0
 10
81.788800
 20
87.779700
 30
0.0
 10
82.374900
 20
88.370400
 30
0.0
 10
82.043800
 20
89.020300
 30
0.0
 10
81.221400
 20
88.893300
 30
0.0
 10
80.361700
 20
88.852400
 30
0.0
 10
80.107400
 20
89.423580
 30
0.0
 10
80.713000
 20
90.035110
 30
0.0
 10
81.357700
 20
90.561360
 30
0.0
 10
81.096300
 20
91.242260
 30
0.0
 10
80.265100
 20
91.201950
 30
0.0
 10
79.405800
 20
91.251170
 30
0.0
 10
79.212700
 20
91.845760
 30
0.0
 10
79.878900
 20
92.390630
 30
0.0
 10
80.575000
 20
92.846610
 30
0.0
 10
80.386300
 20
93.551100
 30
0.0
 10
79.555400
 20
93.597900
 30
0.0
 10
78.706000
 20
93.736670
 30
0.0
 10
78.576000
 20
94.348200
 30
0.0
 10
79.295500
 20
94.820450
 30
0.0
 10
80.035500
 20
95.201160
 30
0.0
 10
79.921500
 20
95.921520
 30
0.0
 10
79.100000
 20
96.054920
 30
0.0
 10
78.269800
 20
96.281710
 30
0.0
 10
78.204400
 20
96.903480
 30
0.0
 10
78.969400
 20
97.297930
 30
0.0
 10
79.745100
 20
97.599200
 30
0.0
 10
79.707000
 20
98.327540
 30
0.0
 10
78.903900
 20
98.546070
 30
0.0
 10
78.102000
 20
98.858400
 30
0.0
 10
78.102000
 20
99.483600
 30
0.0
 10
78.903900
 20
99.795930
 30
0.0
 10
79.707000
 20
100.014460
 30
0.0
 10
79.745100
 20
100.742800
 30
0.0
 10
78.969400
 20
101.044070
 30
0.0
 10
78.204400
 20
101.438520
 30
0.0
 10
78.269800
 20
102.060290
 30
0.0
 10
79.100000
 20
102.287080
 30
0.0
 10
79.921500
 20
102.420480
 30
0.0
 10
80.035500
 20
103.140840
 30
0.0
 10
79.295500
 20
103.521550
 30
0.0
 10
78.576000
 20
103.993800
 30
0.0
 10
78.706000
 20
104.605330
 30
0.0
 10
79.555400
 20
104.744100
 30
0.0
 10
80.386300
 20
104.790900
 30
0.0
 10
80.575000
 20
105.495390
 30
0.0
 10
79.878900
 20
105.951370
 30
0.0
 10
79.212700
 20
106.496240
 30
0.0
 10
79.405800
 20
107.090830
 30
0.0
 10
80.265100
 20
107.140050
 30
0.0
 10
81.096300
 20
107.099740
 30
0.0
 10
81.357700
 20
107.780640
 30
0.0
 10
80.713000
 20
108.306890
 30
0.0
 10
80.107400
 20
108.918420
 30
0.0
 10
80.361700
 20
109.489600
 30
0.0
 10
81.221400
 20
109.448700
 30
0.0
 10
82.043800
 20
109.321700
 30
0.0
 10
82.374900
 20
109.971600
 30
0.0
 10
81.788800
 20
110.562300
 30
0.0
 10
81.250400
 20
111.233800
 30
0.0
 10
81.563000
 20
111.775200
 30
0.0
 10
82.413700
 20
111.644700
 30
0.0
 10
83.218400
 20
111.432500
 30
0.0
 10
83.615600
 20
112.044200
 30
0.0
 10
83.094400
 20
112.693000
 30
0.0
 10
82.629200
 20
113.417000
 30
0.0
 10
82.996700
 20
113.922800
 30
0.0
 10
83.829100
 20
113.704100
 30
0.0
 10
84.607200
 20
113.408900
 30
0.0
 10
85.066200
 20
113.975700
 30
0.0
 10
84.615600
 20
114.675400
 30
0.0
 10
84.228600
 20
115.444200
 30
0.0
 10
84.647000
 20
115.908800
 30
0.0
 10
85.452000
 20
115.604300
 30
0.0
 10
86.194900
 20
115.229300
 30
0.0
 10
86.710700
 20
115.745100
 30
0.0
 10
86.335700
 20
116.488000
 30
0.0
 10
86.031200
 20
117.293000
 30
0.0
 10
86.495800
 20
117.711400
 30
0.0
 10
87.264600
 20
117.324400
 30
0.0
 10
87.964300
 20
116.873800
 30
0.0
 10
88.531100
 20
117.332800
 30
0.0
 10
88.235900
 20
118.110900
 30
0.0
 10
88.017200
 20
118.943300
 30
0.0
 10
88.523000
 20
119.310800
 30
0.0
 10
89.247000
 20
118.845600
 30
0.0
 10
89.895800
 20
118.324400
 30
0.0
 10
90.507500
 20
118.721600
 30
0.0
 10
90.295300
 20
119.526300
 30
0.0
 10
90.164800
 20
120.377000
 30
0.0
 10
90.706200
 20
120.689600
 30
0.0
 10
91.377700
 20
120.151200
 30
0.0
 10
91.968400
 20
119.565100
 30
0.0
 10
92.618300
 20
119.896200
 30
0.0
 10
92.491300
 20
120.718600
 30
0.0
 10
92.450400
 20
121.578300
 30
0.0
 10
93.021580
 20
121.832600
 30
0.0
 10
93.633110
 20
121.227000
 30
0.0
 10
94.159360
 20
120.582300
 30
0.0
 10
94.840260
 20
120.843700
 30
0.0
 10
94.799950
 20
121.674900
 30
0.0
 10
94.849170
 20
122.534200
 30
0.0
 10
95.443760
 20
122.727300
 30
0.0
 10
95.988630
 20
122.061100
 30
0.0
 10
96.444610
 20
121.365000
 30
0.0
 10
97.149100
 20
121.553700
 30
0.0
 10
97.195900
 20
122.384600
 30
0.0
 10
97.334670
 20
123.234000
 30
0.0
 10
97.946200
 20
123.364000
 30
0.0
 10
98.418450
 20
122.644500
 30
0.0
 10
98.799160
 20
121.904500
 30
0.0
 10
99.519520
 20
122.018500
 30
0.0
 10
99.652920
 20
122.840000
 30
0.0
 10
99.879710
 20
123.670200
 30
0.0
 10
100.501480
 20
123.735600
 30
0.0
 10
100.895930
 20
122.970600
 30
0.0
 10
101.197200
 20
122.194900
 30
0.0
 10
101.925540
 20
122.233000
 30
0.0
 10
102.144070
 20
123.036100
 30
0.0
 10
102.456400
 20
123.838000
 30
0.0
 10
103.081600
 20
123.838000
 30
0.0
 10
103.393930
 20
123.036100
 30
0.0
 10
103.612460
 20
122.233000
 30
0.0
 10
104.340800
 20
122.194900
 30
0.0
 10
104.642070
 20
122.970600
 30
0.0
 10
105.036520
 20
123.735600
 30
0.0
 10
105.658290
 20
123.670200
 30
0.0
 10
105.885080
 20
122.840000
 30
0.0
 10
106.018480
 20
122.018500
 30
0.0
 10
106.738840
 20
121.904500
 30
0.0
 10
107.119550
 20
122.644500
 30
0.0
 10
107.591800
 20
123.364000
 30
0.0
 10
108.203330
 20
123.234000
 30
0.0
 10
108.342100
 20
122.384600
 30
0.0
 10
108.388900
 20
121.553700
 30
0.0
 10
109.093390
 20
121.365000
 30
0.0
 10
109.549370
 20
122.061100
 30
0.0
 10
110.094240
 20
122.727300
 30
0.0
 10
110.688830
 20
122.534200
 30
0.0
 10
110.738050
 20
121.674900
 30
0.0
 10
110.697740
 20
120.843700
 30
0.0
 10
111.378640
 20
120.582300
 30
0.0
 10
111.904890
 20
121.227000
 30
0.0
 10
112.516420
 20
121.832600
 30
0.0
 10
113.087600
 20
121.578300
 30
0.0
 10
113.046700
 20
120.718600
 30
0.0
 10
112.919700
 20
119.896200
 30
0.0
 10
113.569600
 20
119.565100
 30
0.0
 10
114.160300
 20
120.151200
 30
0.0
 10
114.831800
 20
120.689600
 30
0.0
 10
115.373200
 20
120.377000
 30
0.0
 10
115.242700
 20
119.526300
 30
0.0
 10
115.030500
 20
118.721600
 30
0.0
 10
115.642200
 20
118.324400
 30
0.0
 10
116.291000
 20
118.845600
 30
0.0
 10
117.015000
 20
119.310800
 30
0.0
 10
117.520800
 20
118.943300
 30
0.0
 10
117.302100
 20
118.110900
 30
0.0
 10
117.006900
 20
117.332800
 30
0.0
 10
117.573700
 20
116.873800
 30
0.0
 10
118.273400
 20
117.324400
 30
0.0
 10
119.042200
 20
117.711400
 30
0.0
 10
119.506800
 20
117.293000
 30
0.0
 10
119.202300
 20
116.488000
 30
0.0
 10
118.827300
 20
115.745100
 30
0.0
 10
119.343100
 20
115.229300
 30
0.0
 10
120.086000
 20
115.604300
 30
0.0
 10
120.891000
 20
115.908800
 30
0.0
 10
121.309400
 20
115.444200
 30
0.0
 10
120.922400
 20
114.675400
 30
0.0
 10
120.471800
 20
113.975700
 30
0.0
 10
120.930800
 20
113.408900
 30
0.0
 10
121.708900
 20
113.704100
 30
0.0
 10
122.541300
 20
113.922800
 30
0.0
 10
122.908800
 20
113.417000
 30
0.0
 10
122.443600
 20
112.693000
 30
0.0
 10
121.922400
 20
112.044200
 30
0.0
 10
122.319600
 20
111.432500
 30
0.0
 10
123.124300
 20
111.644700
 30
0.0
 10
123.975000
 20
111.775200
 30
0.0
 10
124.287600
 20
111.233800
 30
0.0
 10
123.749200
 20
110.562300
 30
0.0
 10
123.163100
 20
109.971600
 30
0.0
 10
123.494200
 20
109.321700
 30
0.0
 10
124.316600
 20
109.448700
 30
0.0
 10
125.176300
 20
109.489600
 30
0.0
 10
125.430600
 20
108.918420
 30
0.0
 10
124.825000
 20
108.306890
 30
0.0
 10
124.180300
 20
107.780640
 30
0.0
 10
124.441700
 20
107.099740
 30
0.0
 10
125.272900
 20
107.140050
 30
0.0
 10
126.132200
 20
107.090830
 30
0.0
 10
126.325300
 20
106.496240
 30
0.0
 10
125.659100
 20
105.951370
 30
0.0
 10
124.963000
 20
105.495390
 30
0.0
 10
125.151700
 20
104.790900
 30
0.0
 10
125.982600
 20
104.744100
 30
0.0
 10
126.832000
 20
104.605330
 30
0.0
 10
126.962000
 20
103.993800
 30
0.0
 10
126.242500
 20
103.521550
 30
0.0
 10
125.502500
 20
103.140840
 30
0.0
 10
125.616500
 20
102.420480
 30
0.0
 10
126.438000
 20
102.287080
 30
0.0
 10
127.268200
 20
102.060290
 30
0.0
 10
127.333600
 20
101.438520
 30
0.0
 10
126.568600
 20
101.044070
 30
0.0
 10
125.792900
 20
100.742800
 30
0.0
  0
LWPOLYLINE
  5
104
100
AcDbEntity
  8
Layer_1
 62
7
100
AcDbPolyline
 90
1
 70
1
 10
102.769000
 20
108.619819
 30
0.0
  0
SPLINE
  5
105
100
AcDbEntity
  8
Layer_1
 62
7
100
AcDbSpline
 70
0
 71
3
 72
25
 73
21
 74
19
 40
0.000000
 40
0.000000
 40
0.000000
 40
0.000000
 40
3.708826
 40
7.351608
 40
11.060434
 40
14.769260
 40
18.412042
 40
22.120868
 40
25.829694
 40
29.472476
 40
33.181302
 40
36.890128
 40
40.532910
 40
44.241736
 40
46.715199
 40
49.168194
 40
51.641658
 40
54.115121
 40
56.568116
 40
59.041579
 40
59.041579
 40
59.041579
 40
59.041579
 10
102.769000
 20
108.619819
 30
0.0
 10
101.524742
 20
108.476243
 30
0.0
 10
99.058384
 20
108.191647
 30
0.0
 10
95.915378
 20
106.008475
 30
0.0
 10
93.809403
 20
102.886976
 30
0.0
 10
93.075396
 20
99.168623
 30
0.0
 10
93.812849
 20
95.462793
 30
0.0
 10
95.911621
 20
92.313531
 30
0.0
 10
99.060455
 20
90.214867
 30
0.0
 10
102.767873
 20
89.477412
 30
0.0
 10
106.480214
 20
90.211317
 30
0.0
 10
109.624104
 20
92.317702
 30
0.0
 10
111.724667
 20
95.459191
 30
0.0
 10
112.382645
 20
98.760458
 30
0.0
 10
112.000153
 20
101.644311
 30
0.0
 10
111.045832
 20
103.949003
 30
0.0
 10
109.527493
 20
105.931571
 30
0.0
 10
107.547418
 20
107.439967
 30
0.0
 10
105.242707
 20
108.431373
 30
0.0
 10
103.595850
 20
108.556830
 30
0.0
 10
102.769000
 20
108.619819
 30
0.0
 11
102.769000
 21
108.619819
 31
0.0
 11
99.132248
 21
107.892200
 31
0.0
 11
96.103386
 21
105.868379
 31
0.0
 11
94.039430
 21
102.786906
 31
0.0
 11
93.319937
 21
99.148539
 31
0.0
 11
94.030608
 21
95.575752
 31
0.0
 11
96.087676
 21
92.489676
 31
0.0
 11
99.173752
 21
90.432608
 31
0.0
 11
102.746539
 21
89.721937
 31
0.0
 11
106.384906
 21
90.441430
 31
0.0
 11
109.466379
 21
92.505386
 31
0.0
 11
111.490200
 21
95.534248
 31
0.0
 11
112.217819
 21
99.171000
 31
0.0
 11
111.894097
 21
101.623188
 31
0.0
 11
110.955377
 21
103.889460
 31
0.0
 11
109.450324
 21
105.852324
 31
0.0
 11
107.487460
 21
107.357377
 31
0.0
 11
105.221188
 21
108.296097
 31
0.0
 11
102.769000
 21
108.619819
 31
0.0
  0
LWPOLYLINE
  5
106
100
AcDbEntity
  8
Layer_1
 62
7
100
AcDbPolyline
 90
324
 70
1
 10
124.983300
 20
159.611810
 30
0.0
 10
125.786800
 20
159.401910
 30
0.0
 10
126.589500
 20
159.087320
 30
0.0
 10
126.589500
 20
158.466680
 30
0.0
 10
125.786800
 20
158.152090
 30
0.0
 10
124.983300
 20
157.942190
 30
0.0
 10
124.940400
 20
157.206150
 30
0.0
 10
125.714200
 20
156.904380
 30
0.0
 10
126.474900
 20
156.498720
 30
0.0
 10
126.402900
 20
155.882290
 30
0.0
 10
125.569100
 20
155.663010
 30
0.0
 10
124.746600
 20
155.547810
 30
0.0
 10
124.618600
 20
154.821720
 30
0.0
 10
125.352000
 20
154.432170
 30
0.0
 10
126.060600
 20
153.940940
 30
0.0
 10
125.917400
 20
153.337030
 30
0.0
 10
125.063800
 20
153.216040
 30
0.0
 10
124.233500
 20
153.197100
 30
0.0
 10
124.022100
 20
152.490790
 30
0.0
 10
124.705400
 20
152.018720
 30
0.0
 10
125.352000
 20
151.448550
 30
0.0
 10
125.139800
 20
150.865350
 30
0.0
 10
124.277900
 20
150.844270
 30
0.0
 10
123.451000
 20
150.921850
 30
0.0
 10
123.159000
 20
150.244860
 30
0.0
 10
123.782900
 20
149.696660
 30
0.0
 10
124.359000
 20
149.055270
 30
0.0
 10
124.080500
 20
148.500700
 30
0.0
 10
123.221900
 20
148.579800
 30
0.0
 10
122.409700
 20
148.752800
 30
0.0
 10
122.041000
 20
148.114300
 30
0.0
 10
122.597000
 20
147.497400
 30
0.0
 10
123.094800
 20
146.793500
 30
0.0
 10
122.753800
 20
146.274900
 30
0.0
 10
121.910200
 20
146.453200
 30
0.0
 10
121.123500
 20
146.719400
 30
0.0
 10
120.683300
 20
146.128000
 30
0.0
 10
121.163900
 20
145.450700
 30
0.0
 10
121.576600
 20
144.693700
 30
0.0
 10
121.177600
 20
144.218300
 30
0.0
 10
120.360500
 20
144.493300
 30
0.0
 10
119.610100
 20
144.849000
 30
0.0
 10
119.104100
 20
144.312700
 30
0.0
 10
119.502800
 20
143.584200
 30
0.0
 10
119.824900
 20
142.784400
 30
0.0
 10
119.373400
 20
142.358500
 30
0.0
 10
118.593700
 20
142.726500
 30
0.0
 10
117.889700
 20
143.166900
 30
0.0
 10
117.324900
 20
142.693000
 30
0.0
 10
117.636300
 20
141.923100
 30
0.0
 10
117.863300
 20
141.091400
 30
0.0
 10
117.365500
 20
140.720800
 30
0.0
 10
116.633800
 20
141.176800
 30
0.0
 10
115.985600
 20
141.695900
 30
0.0
 10
115.369600
 20
141.290800
 30
0.0
 10
115.589600
 20
140.490000
 30
0.0
 10
115.718500
 20
139.637500
 30
0.0
 10
115.181000
 20
139.327200
 30
0.0
 10
114.507200
 20
139.865100
 30
0.0
 10
113.923680
 20
140.456000
 30
0.0
 10
113.264810
 20
140.125100
 30
0.0
 10
113.390340
 20
139.304100
 30
0.0
 10
113.419410
 20
138.442500
 30
0.0
 10
112.849530
 20
138.196700
 30
0.0
 10
112.242730
 20
138.809100
 30
0.0
 10
111.731730
 20
139.463800
 30
0.0
 10
111.038910
 20
139.211600
 30
0.0
 10
111.068280
 20
138.381600
 30
0.0
 10
110.997120
 20
137.522400
 30
0.0
 10
110.402560
 20
137.344400
 30
0.0
 10
109.870960
 20
138.023200
 30
0.0
 10
109.439420
 20
138.732800
 30
0.0
 10
108.722010
 20
138.562700
 30
0.0
 10
108.654830
 20
137.735000
 30
0.0
 10
108.484400
 20
136.889800
 30
0.0
 10
107.873200
 20
136.782100
 30
0.0
 10
107.423990
 20
137.517900
 30
0.0
 10
107.077750
 20
138.272800
 30
0.0
 10
106.345450
 20
138.187200
 30
0.0
 10
106.182620
 20
137.372800
 30
0.0
 10
105.915230
 20
136.553200
 30
0.0
 10
105.295650
 20
136.517100
 30
0.0
 10
104.934910
 20
137.300200
 30
0.0
 10
104.678640
 20
138.090100
 30
0.0
 10
103.941360
 20
138.090100
 30
0.0
 10
103.685090
 20
137.300200
 30
0.0
 10
103.324350
 20
136.517100
 30
0.0
 10
102.704770
 20
136.553200
 30
0.0
 10
102.437380
 20
137.372800
 30
0.0
 10
102.274550
 20
138.187200
 30
0.0
 10
101.542250
 20
138.272800
 30
0.0
 10
101.196010
 20
137.517900
 30
0.0
 10
100.746800
 20
136.782100
 30
0.0
 10
100.135600
 20
136.889800
 30
0.0
 10
99.965170
 20
137.735000
 30
0.0
 10
99.897990
 20
138.562700
 30
0.0
 10
99.180580
 20
138.732800
 30
0.0
 10
98.749040
 20
138.023200
 30
0.0
 10
98.217440
 20
137.344400
 30
0.0
 10
97.622880
 20
137.522400
 30
0.0
 10
97.551720
 20
138.381600
 30
0.0
 10
97.581090
 20
139.211600
 30
0.0
 10
96.888270
 20
139.463800
 30
0.0
 10
96.377270
 20
138.809100
 30
0.0
 10
95.770470
 20
138.196700
 30
0.0
 10
95.200590
 20
138.442500
 30
0.0
 10
95.229660
 20
139.304100
 30
0.0
 10
95.355190
 20
140.125100
 30
0.0
 10
94.696320
 20
140.456000
 30
0.0
 10
94.112800
 20
139.865100
 30
0.0
 10
93.439000
 20
139.327200
 30
0.0
 10
92.901500
 20
139.637500
 30
0.0
 10
93.030400
 20
140.490000
 30
0.0
 10
93.250400
 20
141.290800
 30
0.0
 10
92.634400
 20
141.695900
 30
0.0
 10
91.986200
 20
141.176800
 30
0.0
 10
91.254500
 20
140.720800
 30
0.0
 10
90.756700
 20
141.091400
 30
0.0
 10
90.983700
 20
141.923100
 30
0.0
 10
91.295100
 20
142.693000
 30
0.0
 10
90.730300
 20
143.166900
 30
0.0
 10
90.026300
 20
142.726500
 30
0.0
 10
89.246600
 20
142.358500
 30
0.0
 10
88.795100
 20
142.784400
 30
0.0
 10
89.117200
 20
143.584200
 30
0.0
 10
89.515900
 20
144.312700
 30
0.0
 10
89.009900
 20
144.849000
 30
0.0
 10
88.259500
 20
144.493300
 30
0.0
 10
87.442400
 20
144.218300
 30
0.0
 10
87.043400
 20
144.693700
 30
0.0
 10
87.456100
 20
145.450700
 30
0.0
 10
87.936700
 20
146.128000
 30
0.0
 10
87.496500
 20
146.719400
 30
0.0
 10
86.709800
 20
146.453200
 30
0.0
 10
85.866200
 20
146.274900
 30
0.0
 10
85.525200
 20
146.793500
 30
0.0
 10
86.023000
 20
147.497400
 30
0.0
 10
86.579000
 20
148.114300
 30
0.0
 10
86.210300
 20
148.752800
 30
0.0
 10
85.398100
 20
148.579800
 30
0.0
 10
84.539500
 20
148.500700
 30
0.0
 10
84.261000
 20
149.055270
 30
0.0
 10
84.837100
 20
149.696660
 30
0.0
 10
85.461000
 20
150.244860
 30
0.0
 10
85.169000
 20
150.921850
 30
0.0
 10
84.342100
 20
150.844270
 30
0.0
 10
83.480200
 20
150.865350
 30
0.0
 10
83.268000
 20
151.448550
 30
0.0
 10
83.914600
 20
152.018720
 30
0.0
 10
84.597900
 20
152.490790
 30
0.0
 10
84.386500
 20
153.197100
 30
0.0
 10
83.556200
 20
153.216040
 30
0.0
 10
82.702600
 20
153.337030
 30
0.0
 10
82.559400
 20
153.940940
 30
0.0
 10
83.268000
 20
154.432170
 30
0.0
 10
84.001400
 20
154.821720
 30
0.0
 10
83.873400
 20
155.547810
 30
0.0
 10
83.050900
 20
155.663010
 30
0.0
 10
82.217100
 20
155.882290
 30
0.0
 10
82.145100
 20
156.498720
 30
0.0
 10
82.905800
 20
156.904380
 30
0.0
 10
83.679600
 20
157.206150
 30
0.0
 10
83.636700
 20
157.942190
 30
0.0
 10
82.833200
 20
158.152090
 30
0.0
 10
82.030500
 20
158.466680
 30
0.0
 10
82.030500
 20
159.087320
 30
0.0
 10
82.833200
 20
159.401910
 30
0.0
 10
83.636700
 20
159.611810
 30
0.0
 10
83.679600
 20
160.347850
 30
0.0
 10
82.905800
 20
160.649620
 30
0.0
 10
82.145100
 20
161.055280
 30
0.0
 10
82.217100
 20
161.671710
 30
0.0
 10
83.050900
 20
161.890990
 30
0.0
 10
83.873400
 20
162.006190
 30
0.0
 10
84.001400
 20
162.732280
 30
0.0
 10
83.268000
 20
163.121830
 30
0.0
 10
82.559400
 20
163.613060
 30
0.0
 10
82.702600
 20
164.216970
 30
0.0
 10
83.556200
 20
164.337960
 30
0.0
 10
84.386500
 20
164.356900
 30
0.0
 10
84.597900
 20
165.063210
 30
0.0
 10
83.914600
 20
165.535280
 30
0.0
 10
83.268000
 20
166.105450
 30
0.0
 10
83.480200
 20
166.688650
 30
0.0
 10
84.342100
 20
166.709730
 30
0.0
 10
85.169000
 20
166.632150
 30
0.0
 10
85.461000
 20
167.309140
 30
0.0
 10
84.837100
 20
167.857340
 30
0.0
 10
84.261000
 20
168.498730
 30
0.0
 10
84.539500
 20
169.053300
 30
0.0
 10
85.398100
 20
168.974200
 30
0.0
 10
86.210300
 20
168.801200
 30
0.0
 10
86.579000
 20
169.439700
 30
0.0
 10
86.023000
 20
170.056600
 30
0.0
 10
85.525200
 20
170.760500
 30
0.0
 10
85.866200
 20
171.279100
 30
0.0
 10
86.709800
 20
171.100800
 30
0.0
 10
87.496500
 20
170.834600
 30
0.0
 10
87.936700
 20
171.426000
 30
0.0
 10
87.456100
 20
172.103300
 30
0.0
 10
87.043400
 20
172.860300
 30
0.0
 10
87.442400
 20
173.335700
 30
0.0
 10
88.259500
 20
173.060700
 30
0.0
 10
89.009900
 20
172.705000
 30
0.0
 10
89.515900
 20
173.241300
 30
0.0
 10
89.117200
 20
173.969800
 30
0.0
 10
88.795100
 20
174.769600
 30
0.0
 10
89.246600
 20
175.195500
 30
0.0
 10
90.026300
 20
174.827500
 30
0.0
 10
90.730300
 20
174.387100
 30
0.0
 10
91.295100
 20
174.861000
 30
0.0
 10
90.983700
 20
175.630900
 30
0.0
 10
90.756700
 20
176.462600
 30
0.0
 10
91.254500
 20
176.833200
 30
0.0
 10
91.986200
 20
176.377200
 30
0.0
 10
92.634400
 20
175.858100
 30
0.0
 10
93.250400
 20
176.263200
 30
0.0
 10
93.030400
 20
177.064000
 30
0.0
 10
92.901500
 20
177.916500
 30
0.0
 10
93.439000
 20
178.226800
 30
0.0
 10
94.112800
 20
177.688900
 30
0.0
 10
94.696320
 20
177.098000
 30
0.0
 10
95.355190
 20
177.428900
 30
0.0
 10
95.229660
 20
178.249900
 30
0.0
 10
95.200590
 20
179.111500
 30
0.0
 10
95.770470
 20
179.357300
 30
0.0
 10
96.377270
 20
178.744900
 30
0.0
 10
96.888270
 20
178.090200
 30
0.0
 10
97.581090
 20
178.342400
 30
0.0
 10
97.551720
 20
179.172400
 30
0.0
 10
97.622880
 20
180.031600
 30
0.0
 10
98.217440
 20
180.209600
 30
0.0
 10
98.749040
 20
179.530800
 30
0.0
 10
99.180580
 20
178.821200
 30
0.0
 10
99.897990
 20
178.991300
 30
0.0
 10
99.965170
 20
179.819000
 30
0.0
 10
100.135600
 20
180.664200
 30
0.0
 10
100.746800
 20
180.771900
 30
0.0
 10
101.196010
 20
180.036100
 30
0.0
 10
101.542250
 20
179.281200
 30
0.0
 10
102.274550
 20
179.366800
 30
0.0
 10
102.437380
 20
180.181200
 30
0.0
 10
102.704770
 20
181.000800
 30
0.0
 10
103.324350
 20
181.036900
 30
0.0
 10
103.685090
 20
180.253800
 30
0.0
 10
103.941360
 20
179.463900
 30
0.0
 10
104.678640
 20
179.463900
 30
0.0
 10
104.934910
 20
180.253800
 30
0.0
 10
105.295650
 20
181.036900
 30
0.0
 10
105.915230
 20
181.000800
 30
0.0
 10
106.182620
 20
180.181200
 30
0.0
 10
106.345450
 20
179.366800
 30
0.0
 10
107.077750
 20
179.281200
 30
0.0
 10
107.423990
 20
180.036100
 30
0.0
 10
107.873200
 20
180.771900
 30
0.0
 10
108.484400
 20
180.664200
 30
0.0
 10
108.654830
 20
179.819000
 30
0.0
 10
108.722010
 20
178.991300
 30
0.0
 10
109.439420
 20
178.821200
 30
0.0
 10
109.870960
 20
179.530800
 30
0.0
 10
110.402560
 20
180.209600
 30
0.0
 10
110.997120
 20
180.031600
 30
0.0
 10
111.068280
 20
179.172400
 30
0.0
 10
111.038910
 20
178.342400
 30
0.0
 10
111.731730
 20
178.090200
 30
0.0
 10
112.242730
 20
178.744900
 30
0.0
 10
112.849530
 20
179.357300
 30
0.0
 10
113.419410
 20
179.111500
 30
0.0
 10
113.390340
 20
178.249900
 30
0.0
 10
113.264810
 20
177.428900
 30
0.0
 10
113.923680
 20
177.098000
 30
0.0
 10
114.507200
 20
177.688900
 30
0.0
 10
115.181000
 20
178.226800
 30
0.0
 10
115.718500
 20
177.916500
 30
0.0
 10
115.589600
 20
177.064000
 30
0.0
 10
115.369600
 20
176.263200
 30
0.0
 10
115.985600
 20
175.858100
 30
0.0
 10
116.633800
 20
176.377200
 30
0.0
 10
117.365500
 20
176.833200
 30
0.0
 10
117.863300
 20
176.462600
 30
0.0
 10
117.636300
 20
175.630900
 30
0.0
 10
117.324900
 20
174.861000
 30
0.0
 10
117.889700
 20
174.387100
 30
0.0
 10
118.593700
 20
174.827500
 30
0.0
 10
119.373400
 20
175.195500
 30
0.0
 10
119.824900
 20
174.769600
 30
0.0
 10
119.502800
 20
173.969800
 30
0.0
 10
119.104100
 20
173.241300
 30
0.0
 10
119.610100
 20
172.705000
 30
0.0
 10
120.360500
 20
173.060700
 30
0.0
 10
121.177600
 20
173.335700
 30
0.0
 10
121.576600
 20
172.860300
 30
0.0
 10
121.163900
 20
172.103300
 30
0.0
 10
120.683300
 20
171.426000
 30
0.0
 10
121.123500
 20
170.834600
 30
0.0
 10
121.910200
 20
171.100800
 30
0.0
 10
122.753800
 20
171.279100
 30
0.0
 10
123.094800
 20
170.760500
 30
0.0
 10
122.597000
 20
170.056600
 30
0.0
 10
122.041000
 20
169.439700
 30
0.0
 10
122.409700
 20
168.801200
 30
0.0
 10
123.221900
 20
168.974200
 30
0.0
 10
124.080500
 20
169.053300
 30
0.0
 10
124.359000
 20
168.498730
 30
0.0
 10
123.782900
 20
167.857340
 30
0.0
 10
123.159000
 20
167.309140
 30
0.0
 10
123.451000
 20
166.632150
 30
0.0
 10
124.277900
 20
166.709730
 30
0.0
 10
125.139800
 20
166.688650
 30
0.0
 10
125.352000
 20
166.105450
 30
0.0
 10
124.705400
 20
165.535280
 30
0.0
 10
124.022100
 20
165.063210
 30
0.0
 10
124.233500
 20
164.356900
 30
0.0
 10
125.063800
 20
164.337960
 30
0.0
 10
125.917400
 20
164.216970
 30
0.0
 10
126.060600
 20
163.613060
 30
0.0
 10
125.352000
 20
163.121830
 30
0.0
 10
124.618600
 20
162.732280
 30
0.0
 10
124.746600
 20
162.006190
 30
0.0
 10
125.569100
 20
161.890990
 30
0.0
 10
126.402900
 20
161.671710
 30
0.0
 10
126.474900
 20
161.055280
 30
0.0
 10
125.714200
 20
160.649620
 30
0.0
 10
124.940400
 20
160.347850
 30
0.0
  0
SPLINE
  5
107
100
AcDbEntity
  8
Layer_1
 62
7
100
AcDbSpline
 70
0
 71
3
 72
25
 73
21
 74
19
 40
0.000000
 40
0.000000
 40
0.000000
 40
0.000000
 40
3.708826
 40
7.351608
 40
11.060434
 40
14.769260
 40
18.412042
 40
22.120868
 40
25.829694
 40
29.472476
 40
33.181302
 40
36.890128
 40
40.532910
 40
44.241736
 40
46.715199
 40
49.168194
 40
51.641658
 40
54.115121
 40
56.568116
 40
59.041579
 40
59.041579
 40
59.041579
 40
59.041579
 10
104.310000
 20
168.225819
 30
0.0
 10
103.065742
 20
168.082243
 30
0.0
 10
100.599384
 20
167.797647
 30
0.0
 10
97.456378
 20
165.614475
 30
0.0
 10
95.350403
 20
162.492976
 30
0.0
 10
94.616396
 20
158.774623
 30
0.0
 10
95.353849
 20
155.068793
 30
0.0
 10
97.452621
 20
151.919531
 30
0.0
 10
100.601455
 20
149.820867
 30
0.0
 10
104.308873
 20
149.083412
 30
0.0
 10
108.021214
 20
149.817317
 30
0.0
 10
111.165104
 20
151.923702
 30
0.0
 10
113.265667
 20
155.065191
 30
0.0
 10
113.923645
 20
158.366458
 30
0.0
 10
113.541153
 20
161.250311
 30
0.0
 10
112.586832
 20
163.555003
 30
0.0
 10
111.068493
 20
165.537571
 30
0.0
 10
109.088418
 20
167.045967
 30
0.0
 10
106.783707
 20
168.037373
 30
0.0
 10
105.136850
 20
168.162830
 30
0.0
 10
104.310000
 20
168.225819
 30
0.0
 11
104.310000
 21
168.225819
 31
0.0
 11
100.673248
 21
167.498200
 31
0.0
 11
97.644386
 21
165.474379
 31
0.0
 11
95.580430
 21
162.392906
 31
0.0
 11
94.860937
 21
158.754539
 31
0.0
 11
95.571608
 21
155.181752
 31
0.0
 11
97.628676
 21
152.095676
 31
0.0
 11
100.714752
 21
150.038608
 31
0.0
 11
104.287539
 21
149.327937
 31
0.0
 11
107.925906
 21
150.047430
 31
0.0
 11
111.007379
 21
152.111386
 31
0.0
 11
113.031200
 21
155.140248
 31
0.0
 11
113.758819
 21
158.777000
 31
0.0
 11
113.435097
 21
161.229188
 31
0.0
 11
112.496377
 21
163.495460
 31
0.0
 11
110.991324
 21
165.458324
 31
0.0
 11
109.028460
 21
166.963377
 31
0.0
 11
106.762188
 21
167.902097
 31
0.0
 11
104.310000
 21
168.225819
 31
0.0
  0
LWPOLYLINE
  5
108
100
AcDbEntity
  8
Layer_1
 62
7
100
AcDbPolyline
 90
1
 70
1
 10
104.310000
 20
168.225819
 30
0.0
  0
ENDSEC
  0
SECTION
  2
OBJECTS
  0
DICTIONARY
  5
C
330
0
100
AcDbDictionary
  3
ACAD_GROUP
350
D
  3
ACAD_MLINESTYLE
350
17
  0
DICTIONARY
  5
D
330
C
100
AcDbDictionary
  0
DICTIONARY
  5
1A
330
C
100
AcDbDictionary
  0
DICTIONARY
  5
17
330
C
100
AcDbDictionary
  3
STANDARD
350
18
  0
DICTIONARY
  5
19
330
C
100
AcDbDictionary
  0
ENDSEC
  0
EOF
