<?xml version="1.0" encoding="UTF-8" standalone="no"?>
<!-- Created with Inkscape (http://www.inkscape.org/) -->

<svg
   width="210mm"
   height="297mm"
   viewBox="0 0 210 297"
   version="1.1"
   id="svg5"
   sodipodi:docname="gears.svg"
   inkscape:version="1.1.1 (c3084ef, 2021-09-22)"
   xmlns:inkscape="http://www.inkscape.org/namespaces/inkscape"
   xmlns:sodipodi="http://sodipodi.sourceforge.net/DTD/sodipodi-0.dtd"
   xmlns="http://www.w3.org/2000/svg"
   xmlns:svg="http://www.w3.org/2000/svg">
  <sodipodi:namedview
     id="namedview7"
     pagecolor="#ffffff"
     bordercolor="#666666"
     borderopacity="1.0"
     inkscape:pageshadow="2"
     inkscape:pageopacity="0.0"
     inkscape:pagecheckerboard="0"
     inkscape:document-units="mm"
     showgrid="false"
     inkscape:zoom="0.51491302"
     inkscape:cx="396.18342"
     inkscape:cy="561.25984"
     inkscape:window-width="1312"
     inkscape:window-height="800"
     inkscape:window-x="0"
     inkscape:window-y="25"
     inkscape:window-maximized="0"
     inkscape:current-layer="layer1" />
  <defs
     id="defs2" />
  <g
     inkscape:label="Layer 1"
     inkscape:groupmode="layer"
     id="layer1">
    <g
       inkscape:label="Rendered Gears"
       transform="translate(103.79632,91.977509)"
       id="g41">
      <path
         style="fill:none;stroke:#000000;stroke-width:0.264583"
         d="m 18.2843,-0.82368 0.8041,0.19879 0.8036,0.31737 v 0.61504 l -0.8036,0.31737 -0.8041,0.19879 -0.0489,0.74626 0.7712,0.30205 0.7553,0.41954 -0.0802,0.60979 -0.8382,0.20975 -0.8232,0.09214 -0.1459,0.73349 0.7253,0.40014 0.6941,0.51454 -0.1592,0.59409 -0.8584,0.09856 -0.8281,-0.01609 -0.2404,0.70816 0.6668,0.49138 0.621,0.60074 -0.2354,0.56823 -0.8639,-0.01433 -0.8189,-0.12405 -0.3308,0.67074 0.597,0.5742 0.5372,0.67666 -0.3075,0.53263 -0.8546,-0.1269 -0.7958,-0.22993 -0.4155,0.62183 0.5169,0.6472 0.4444,0.741 -0.3744,0.488 -0.8308,-0.2375 -0.7589,-0.3318 -0.4931,0.5623 0.428,0.7091 0.3438,0.7927 -0.4349,0.4349 -0.7927,-0.3438 -0.7091,-0.428 -0.5623,0.4931 0.3318,0.7589 0.2375,0.8308 -0.488,0.3744 -0.741,-0.4444 -0.6472,-0.5169 -0.62183,0.4155 0.22993,0.7958 0.1269,0.8546 -0.53263,0.3075 -0.67666,-0.5372 -0.5742,-0.597 -0.67074,0.3308 0.12405,0.8189 0.01433,0.8639 L 7.32822,18.4955 6.72748,17.8745 6.2361,17.2077 5.52794,17.4481 5.54403,18.2762 5.44547,19.1346 4.85138,19.2938 4.33684,18.5997 3.9367,17.8744 3.20321,18.0203 3.11107,18.8435 2.90132,19.6817 2.29153,19.7619 1.87199,19.0066 1.56994,18.2354 0.82368,18.2843 0.62489,19.0884 0.30752,19.892 h -0.61504 l -0.31737,-0.8036 -0.19879,-0.8041 -0.74626,-0.0489 -0.30205,0.7712 -0.41954,0.7553 -0.60979,-0.0802 -0.20975,-0.8382 -0.09214,-0.8232 -0.73349,-0.1459 -0.40014,0.7253 -0.51454,0.6941 -0.59409,-0.1592 -0.09856,-0.8584 0.01609,-0.8281 -0.70816,-0.2404 -0.49138,0.6668 -0.60074,0.621 -0.56823,-0.2354 0.01433,-0.8639 0.12405,-0.8189 -0.67074,-0.3308 -0.5742,0.597 -0.67666,0.5372 -0.53263,-0.3075 0.1269,-0.8546 0.22993,-0.7958 -0.62183,-0.4155 -0.6472,0.5169 -0.741,0.4444 -0.488,-0.3744 0.2375,-0.8308 0.3318,-0.7589 -0.5623,-0.4931 -0.7091,0.428 -0.7927,0.3438 -0.4349,-0.4349 0.3438,-0.7927 0.428,-0.7091 -0.4931,-0.5623 -0.7589,0.3318 -0.8308,0.2375 -0.3744,-0.488 0.4444,-0.741 0.5169,-0.6472 -0.4155,-0.62183 -0.7958,0.22993 -0.8546,0.1269 -0.3075,-0.53263 0.5372,-0.67666 0.597,-0.5742 -0.3308,-0.67074 -0.8189,0.12405 -0.8639,0.01433 -0.2354,-0.56823 0.621,-0.60074 0.6668,-0.49138 -0.2404,-0.70816 -0.8281,0.01609 -0.8584,-0.09856 -0.1592,-0.59409 0.6941,-0.51454 0.7253,-0.40014 -0.1459,-0.73349 -0.8232,-0.09214 -0.8382,-0.20975 -0.0802,-0.60979 0.7553,-0.41954 0.7712,-0.30205 -0.0489,-0.74626 -0.8041,-0.19879 -0.8036,-0.31737 v -0.61504 l 0.8036,-0.31737 0.8041,-0.19879 0.0489,-0.74626 -0.7712,-0.30205 -0.7553,-0.41954 0.0802,-0.60979 0.8382,-0.20975 0.8232,-0.09214 0.1459,-0.73349 -0.7253,-0.40014 -0.6941,-0.51454 0.1592,-0.59409 0.8584,-0.09856 0.8281,0.01609 0.2404,-0.70816 -0.6668,-0.49138 -0.621,-0.60074 0.2354,-0.56823 0.8639,0.01433 0.8189,0.12405 0.3308,-0.67074 -0.597,-0.5742 -0.5372,-0.67666 0.3075,-0.53263 0.8546,0.1269 0.7958,0.22993 0.4155,-0.62183 -0.5169,-0.6472 -0.4444,-0.741 0.3744,-0.488 0.8308,0.2375 0.7589,0.3318 0.4931,-0.5623 -0.428,-0.7091 -0.3438,-0.7927 0.4349,-0.4349 0.7927,0.3438 0.7091,0.428 0.5623,-0.4931 -0.3318,-0.7589 -0.2375,-0.8308 0.488,-0.3744 0.741,0.4444 0.6472,0.5169 0.62183,-0.4155 -0.22993,-0.7958 -0.1269,-0.8546 0.53263,-0.3075 0.67666,0.5372 0.5742,0.597 0.67074,-0.3308 -0.12405,-0.8189 -0.01433,-0.8639 0.56823,-0.2354 0.60074,0.621 0.49138,0.6668 0.70816,-0.2404 -0.01609,-0.8281 0.09856,-0.8584 0.59409,-0.1592 0.51454,0.6941 0.40014,0.7253 0.73349,-0.1459 0.09214,-0.8232 0.20975,-0.8382 0.60979,-0.0802 0.41954,0.7553 0.30205,0.7712 0.74626,-0.0489 0.19879,-0.8041 0.31737,-0.8036 h 0.61504 l 0.31737,0.8036 0.19879,0.8041 0.74626,0.0489 0.30205,-0.7712 0.41954,-0.7553 0.60979,0.0802 0.20975,0.8382 0.09214,0.8232 0.73349,0.1459 0.40014,-0.7253 0.51454,-0.6941 0.59409,0.1592 0.09856,0.8584 -0.01609,0.8281 0.70816,0.2404 0.49138,-0.6668 0.60074,-0.621 0.56823,0.2354 -0.01433,0.8639 -0.12405,0.8189 0.67074,0.3308 0.5742,-0.597 0.67666,-0.5372 0.53263,0.3075 -0.1269,0.8546 -0.22993,0.7958 0.62183,0.4155 0.6472,-0.5169 0.741,-0.4444 0.488,0.3744 -0.2375,0.8308 -0.3318,0.7589 0.5623,0.4931 0.7091,-0.428 0.7927,-0.3438 0.4349,0.4349 -0.3438,0.7927 -0.428,0.7091 0.4931,0.5623 0.7589,-0.3318 0.8308,-0.2375 0.3744,0.488 -0.4444,0.741 -0.5169,0.6472 0.4155,0.62183 0.7958,-0.22993 0.8546,-0.1269 0.3075,0.53263 -0.5372,0.67666 -0.597,0.5742 0.3308,0.67074 0.8189,-0.12405 0.8639,-0.01433 0.2354,0.56823 -0.621,0.60074 -0.6668,0.49138 0.2404,0.70816 0.8281,-0.01609 0.8584,0.09856 0.1592,0.59409 -0.6941,0.51454 -0.7253,0.40014 0.1459,0.73349 0.8232,0.09214 0.8382,0.20975 0.0802,0.60979 -0.7553,0.41954 -0.7712,0.30205 z"
         id="path37" />
      <circle
         style="fill:none;stroke:#000000;stroke-width:0.264583"
         id="path39"
         cx="0"
         cy="0"
         r="2.5" />
    </g>
    <g
       inkscape:label="Rendered Gears"
       transform="translate(102.76864,197.82872)"
       id="g129">
      <path
         style="fill:none;stroke:#000000;stroke-width:0.264583"
         d="m 23.062,-0.84346 0.8031,0.21853 0.8019,0.31233 v 0.6252 l -0.8019,0.31233 -0.8031,0.21853 -0.0381,0.72834 0.7757,0.30127 0.765,0.39445 -0.0654,0.62177 -0.8302,0.22679 -0.8215,0.1334 -0.114,0.72036 0.74,0.38071 0.7195,0.47225 -0.13,0.61153 -0.8494,0.13877 -0.8309,0.0468 -0.1887,0.70449 0.6961,0.45598 0.6662,0.54487 -0.1931,0.59459 -0.8593,0.04922 -0.8312,-0.04031 -0.2614,0.6809 0.6447,0.52625 0.6056,0.61153 -0.2543,0.57118 -0.8597,-0.0409 -0.8224,-0.127 -0.3311,0.6499 0.5861,0.5907 0.5384,0.6715 -0.3126,0.5414 -0.8507,-0.1305 -0.8047,-0.2122 -0.3972,0.6117 0.5212,0.6488 0.4652,0.724 -0.3675,0.5058 -0.8324,-0.2187 -0.7781,-0.2952 -0.459,0.5668 0.4506,0.6997 0.387,0.7688 -0.4184,0.4646 -0.805,-0.3045 -0.7429,-0.375 -0.5158,0.5158 0.375,0.7429 0.3045,0.805 -0.4646,0.4184 -0.7688,-0.387 -0.6997,-0.4506 -0.5668,0.459 0.2952,0.7781 0.2187,0.8324 -0.5058,0.3675 -0.724,-0.4652 -0.6488,-0.5212 -0.6117,0.3972 0.2122,0.8047 0.1305,0.8507 -0.5414,0.3126 -0.6715,-0.5384 -0.5907,-0.5861 -0.6499,0.3311 0.127,0.8224 0.0409,0.8597 L 9.74742,22.6616 9.13589,22.056 8.60964,21.4113 7.92874,21.6727 7.96905,22.5039 7.91983,23.3632 7.32524,23.5563 6.78037,22.8901 6.32439,22.194 5.6199,22.3827 5.5731,23.2136 5.43433,24.063 4.8228,24.193 4.35055,23.4735 3.96984,22.7335 3.24948,22.8475 3.11608,23.669 2.88929,24.4992 2.26752,24.5646 1.87307,23.7996 1.5718,23.0239 0.84346,23.062 0.62493,23.8651 0.3126,24.667 h -0.6252 l -0.31233,-0.8019 -0.21853,-0.8031 -0.72834,-0.0381 -0.30127,0.7757 -0.39445,0.765 -0.62177,-0.0654 -0.22679,-0.8302 -0.1334,-0.8215 -0.72036,-0.114 -0.38071,0.74 -0.47225,0.7195 -0.61153,-0.13 -0.13877,-0.8494 -0.0468,-0.8309 -0.70449,-0.1887 -0.45598,0.6961 -0.54487,0.6662 -0.59459,-0.1931 -0.04922,-0.8593 0.04031,-0.8312 -0.6809,-0.2614 -0.52625,0.6447 -0.61153,0.6056 -0.57118,-0.2543 0.0409,-0.8597 0.127,-0.8224 -0.6499,-0.3311 -0.5907,0.5861 -0.6715,0.5384 -0.5414,-0.3126 0.1305,-0.8507 0.2122,-0.8047 -0.6117,-0.3972 -0.6488,0.5212 -0.724,0.4652 -0.5058,-0.3675 0.2187,-0.8324 0.2952,-0.7781 -0.5668,-0.459 -0.6997,0.4506 -0.7688,0.387 -0.4646,-0.4184 0.3045,-0.805 0.375,-0.7429 -0.5158,-0.5158 -0.7429,0.375 -0.805,0.3045 -0.4184,-0.4646 0.387,-0.7688 0.4506,-0.6997 -0.459,-0.5668 -0.7781,0.2952 -0.8324,0.2187 -0.3675,-0.5058 0.4652,-0.724 0.5212,-0.6488 -0.3972,-0.6117 -0.8047,0.2122 -0.8507,0.1305 -0.3126,-0.5414 0.5384,-0.6715 0.5861,-0.5907 -0.3311,-0.6499 -0.8224,0.127 -0.8597,0.0409 -0.2543,-0.57118 0.6056,-0.61153 0.6447,-0.52625 -0.2614,-0.6809 -0.8312,0.04031 -0.8593,-0.04922 -0.1931,-0.59459 0.6662,-0.54487 0.6961,-0.45598 -0.1887,-0.70449 -0.8309,-0.0468 -0.8494,-0.13877 -0.13,-0.61153 0.7195,-0.47225 0.74,-0.38071 -0.114,-0.72036 -0.8215,-0.1334 -0.8302,-0.22679 -0.0654,-0.62177 0.765,-0.39445 L -23.0239,1.5718 -23.062,0.84346 -23.8651,0.62493 -24.667,0.3126 v -0.6252 l 0.8019,-0.31233 0.8031,-0.21853 0.0381,-0.72834 -0.7757,-0.30127 -0.765,-0.39445 0.0654,-0.62177 0.8302,-0.22679 0.8215,-0.1334 0.114,-0.72036 -0.74,-0.38071 -0.7195,-0.47225 0.13,-0.61153 0.8494,-0.13877 0.8309,-0.0468 0.1887,-0.70449 -0.6961,-0.45598 -0.6662,-0.54487 0.1931,-0.59459 0.8593,-0.04922 0.8312,0.04031 0.2614,-0.6809 -0.6447,-0.52625 -0.6056,-0.61153 0.2543,-0.57118 0.8597,0.0409 0.8224,0.127 0.3311,-0.6499 -0.5861,-0.5907 -0.5384,-0.6715 0.3126,-0.5414 0.8507,0.1305 0.8047,0.2122 0.3972,-0.6117 -0.5212,-0.6488 -0.4652,-0.724 0.3675,-0.5058 0.8324,0.2187 0.7781,0.2952 0.459,-0.5668 -0.4506,-0.6997 -0.387,-0.7688 0.4184,-0.4646 0.805,0.3045 0.7429,0.375 0.5158,-0.5158 -0.375,-0.7429 -0.3045,-0.805 0.4646,-0.4184 0.7688,0.387 0.6997,0.4506 0.5668,-0.459 -0.2952,-0.7781 -0.2187,-0.8324 0.5058,-0.3675 0.724,0.4652 0.6488,0.5212 0.6117,-0.3972 -0.2122,-0.8047 -0.1305,-0.8507 0.5414,-0.3126 0.6715,0.5384 0.5907,0.5861 0.6499,-0.3311 -0.127,-0.8224 -0.0409,-0.8597 0.57118,-0.2543 0.61153,0.6056 0.52625,0.6447 0.6809,-0.2614 -0.04031,-0.8312 0.04922,-0.8593 0.59459,-0.1931 0.54487,0.6662 0.45598,0.6961 0.70449,-0.1887 0.0468,-0.8309 0.13877,-0.8494 0.61153,-0.13 0.47225,0.7195 0.38071,0.74 0.72036,-0.114 0.1334,-0.8215 0.22679,-0.8302 0.62177,-0.0654 0.39445,0.765 0.30127,0.7757 0.72834,-0.0381 0.21853,-0.8031 0.31233,-0.8019 h 0.6252 l 0.31233,0.8019 0.21853,0.8031 0.72834,0.0381 0.30127,-0.7757 0.39445,-0.765 0.62177,0.0654 0.22679,0.8302 0.1334,0.8215 0.72036,0.114 0.38071,-0.74 0.47225,-0.7195 0.61153,0.13 0.13877,0.8494 0.0468,0.8309 0.70449,0.1887 0.45598,-0.6961 0.54487,-0.6662 0.59459,0.1931 0.04922,0.8593 -0.04031,0.8312 0.6809,0.2614 0.52625,-0.6447 0.61153,-0.6056 0.57118,0.2543 -0.0409,0.8597 -0.127,0.8224 0.6499,0.3311 0.5907,-0.5861 0.6715,-0.5384 0.5414,0.3126 -0.1305,0.8507 -0.2122,0.8047 0.6117,0.3972 0.6488,-0.5212 0.724,-0.4652 0.5058,0.3675 -0.2187,0.8324 -0.2952,0.7781 0.5668,0.459 0.6997,-0.4506 0.7688,-0.387 0.4646,0.4184 -0.3045,0.805 -0.375,0.7429 0.5158,0.5158 0.7429,-0.375 0.805,-0.3045 0.4184,0.4646 -0.387,0.7688 -0.4506,0.6997 0.459,0.5668 0.7781,-0.2952 0.8324,-0.2187 0.3675,0.5058 -0.4652,0.724 -0.5212,0.6488 0.3972,0.6117 0.8047,-0.2122 0.8507,-0.1305 0.3126,0.5414 -0.5384,0.6715 -0.5861,0.5907 0.3311,0.6499 0.8224,-0.127 0.8597,-0.0409 0.2543,0.57118 -0.6056,0.61153 -0.6447,0.52625 0.2614,0.6809 0.8312,-0.04031 0.8593,0.04922 0.1931,0.59459 -0.6662,0.54487 -0.6961,0.45598 0.1887,0.70449 0.8309,0.0468 0.8494,0.13877 0.13,0.61153 -0.7195,0.47225 -0.74,0.38071 0.114,0.72036 0.8215,0.1334 0.8302,0.22679 0.0654,0.62177 -0.765,0.39445 -0.7757,0.30127 z"
         id="path125" />
      <circle
         style="fill:none;stroke:#000000;stroke-width:0.264583"
         id="path127"
         cx="0"
         cy="0"
         r="2.5" />
    </g>
    <g
       inkscape:label="Rendered Gears"
       transform="translate(104.31016,138.22318)"
       id="g256">
      <path
         style="fill:none;stroke:#000000;stroke-width:0.264583"
         d="m 20.6733,-0.83481 0.8035,0.2099 0.8027,0.31459 v 0.62064 l -0.8027,0.31459 -0.8035,0.2099 -0.0429,0.73604 0.7738,0.30177 0.7607,0.40566 -0.072,0.61643 -0.8338,0.21928 -0.8225,0.1152 -0.128,0.72609 0.7334,0.38955 0.7086,0.49123 -0.1432,0.60391 -0.8536,0.12099 -0.8303,0.01894 -0.2114,0.70631 0.6833,0.47207 0.6466,0.57017 -0.2122,0.5832 -0.8619,0.02108 -0.8269,-0.07758 -0.292,0.67699 0.6239,0.5482 0.5761,0.64139 -0.2785,0.55457 -0.8586,-0.0791 -0.8122,-0.173 -0.3687,0.6385 0.556,0.6169 0.4978,0.7039 -0.341,0.5186 -0.8436,-0.1783 -0.7867,-0.2662 -0.4402,0.5914 0.4806,0.6773 0.4127,0.757 -0.399,0.4754 -0.8171,-0.275 -0.7504,-0.3557 -0.506,0.5363 0.3987,0.7285 0.3221,0.7998 -0.4515,0.4259 -0.7797,-0.368 -0.704,-0.4404 -0.5648,0.4739 0.3114,0.7699 0.227,0.8317 -0.4978,0.3706 -0.7317,-0.456 -0.6482,-0.5191 -0.616,0.4051 0.22,0.8008 0.1289,0.8525 -0.5375,0.3103 -0.6738,-0.5379 -0.58352,-0.5909 -0.65887,0.3309 0.12553,0.821 0.02907,0.8616 -0.56988,0.2458 -0.6068,-0.6124 -0.511,-0.6547 -0.69282,0.2522 0.02937,0.83 -0.07116,0.8592 -0.59456,0.178 L 5.56096,20.7538 5.12942,20.0442 4.41201,20.2143 4.34483,21.042 4.1744,21.8872 3.5632,21.9949 3.11399,21.2591 2.76775,20.5042 2.03545,20.5898 1.87262,21.4042 1.60523,22.2238 0.98565,22.2599 0.62491,21.4768 0.36864,20.6869 h -0.73728 l -0.25627,0.7899 -0.36074,0.7831 -0.61958,-0.0361 -0.26739,-0.8196 -0.16283,-0.8144 -0.7323,-0.0856 -0.34624,0.7549 -0.44921,0.7358 -0.6112,-0.1077 -0.17043,-0.8452 -0.06718,-0.8277 -0.71741,-0.1701 -0.43154,0.7096 -0.5316,0.6788 -0.59456,-0.178 -0.07116,-0.8592 0.02937,-0.83 -0.69282,-0.2522 -0.511,0.6547 -0.6068,0.6124 -0.56988,-0.2458 0.02907,-0.8616 0.12553,-0.821 -0.65887,-0.3309 -0.58352,0.5909 -0.6738,0.5379 -0.5375,-0.3103 0.1289,-0.8525 0.22,-0.8008 -0.616,-0.4051 -0.6482,0.5191 -0.7317,0.456 -0.4978,-0.3706 0.227,-0.8317 0.3114,-0.7699 -0.5648,-0.4739 -0.704,0.4404 -0.7797,0.368 -0.4515,-0.4259 0.3221,-0.7998 0.3987,-0.7285 -0.506,-0.5363 -0.7504,0.3557 -0.8171,0.275 -0.399,-0.4754 0.4127,-0.757 0.4806,-0.6773 -0.4402,-0.5914 -0.7867,0.2662 -0.8436,0.1783 -0.341,-0.5186 0.4978,-0.7039 0.556,-0.6169 -0.3687,-0.6385 -0.8122,0.173 -0.8586,0.0791 -0.2785,-0.55457 0.5761,-0.64139 0.6239,-0.5482 -0.292,-0.67699 -0.8269,0.07758 -0.8619,-0.02108 -0.2122,-0.5832 0.6466,-0.57017 0.6833,-0.47207 -0.2114,-0.70631 -0.8303,-0.01894 -0.8536,-0.12099 -0.1432,-0.60391 0.7086,-0.49123 0.7334,-0.38955 -0.128,-0.72609 -0.8225,-0.1152 -0.8338,-0.21928 -0.072,-0.61643 0.7607,-0.40566 0.7738,-0.30177 -0.0429,-0.73604 -0.8035,-0.2099 -0.8027,-0.31459 v -0.62064 l 0.8027,-0.31459 0.8035,-0.2099 0.0429,-0.73604 -0.7738,-0.30177 -0.7607,-0.40566 0.072,-0.61643 0.8338,-0.21928 0.8225,-0.1152 0.128,-0.72609 -0.7334,-0.38955 -0.7086,-0.49123 0.1432,-0.60391 0.8536,-0.12099 0.8303,-0.01894 0.2114,-0.70631 -0.6833,-0.47207 -0.6466,-0.57017 0.2122,-0.5832 0.8619,-0.02108 0.8269,0.07758 0.292,-0.67699 -0.6239,-0.5482 -0.5761,-0.64139 0.2785,-0.55457 0.8586,0.0791 0.8122,0.173 0.3687,-0.6385 -0.556,-0.6169 -0.4978,-0.7039 0.341,-0.5186 0.8436,0.1783 0.7867,0.2662 0.4402,-0.5914 -0.4806,-0.6773 -0.4127,-0.757 0.399,-0.4754 0.8171,0.275 0.7504,0.3557 0.506,-0.5363 -0.3987,-0.7285 -0.3221,-0.7998 0.4515,-0.4259 0.7797,0.368 0.704,0.4404 0.5648,-0.4739 -0.3114,-0.7699 -0.227,-0.8317 0.4978,-0.3706 0.7317,0.456 0.6482,0.5191 0.616,-0.4051 -0.22,-0.8008 -0.1289,-0.8525 0.5375,-0.3103 0.6738,0.5379 0.58352,0.5909 0.65887,-0.3309 -0.12553,-0.821 -0.02907,-0.8616 0.56988,-0.2458 0.6068,0.6124 0.511,0.6547 0.69282,-0.2522 -0.02937,-0.83 0.07116,-0.8592 0.59456,-0.178 0.5316,0.6788 0.43154,0.7096 0.71741,-0.1701 0.06718,-0.8277 0.17043,-0.8452 0.6112,-0.1077 0.44921,0.7358 0.34624,0.7549 0.7323,-0.0856 0.16283,-0.8144 0.26739,-0.8196 0.61958,-0.0361 0.36074,0.7831 0.25627,0.7899 h 0.73728 l 0.25627,-0.7899 0.36074,-0.7831 0.61958,0.0361 0.26739,0.8196 0.16283,0.8144 0.7323,0.0856 0.34624,-0.7549 0.44921,-0.7358 0.6112,0.1077 0.17043,0.8452 0.06718,0.8277 0.71741,0.1701 0.43154,-0.7096 0.5316,-0.6788 0.59456,0.178 0.07116,0.8592 -0.02937,0.83 0.69282,0.2522 0.511,-0.6547 0.6068,-0.6124 0.56988,0.2458 -0.02907,0.8616 -0.12553,0.821 0.65887,0.3309 0.58352,-0.5909 0.6738,-0.5379 0.5375,0.3103 -0.1289,0.8525 -0.22,0.8008 0.616,0.4051 0.6482,-0.5191 0.7317,-0.456 0.4978,0.3706 -0.227,0.8317 -0.3114,0.7699 0.5648,0.4739 0.704,-0.4404 0.7797,-0.368 0.4515,0.4259 -0.3221,0.7998 -0.3987,0.7285 0.506,0.5363 0.7504,-0.3557 0.8171,-0.275 0.399,0.4754 -0.4127,0.757 -0.4806,0.6773 0.4402,0.5914 0.7867,-0.2662 0.8436,-0.1783 0.341,0.5186 -0.4978,0.7039 -0.556,0.6169 0.3687,0.6385 0.8122,-0.173 0.8586,-0.0791 0.2785,0.55457 -0.5761,0.64139 -0.6239,0.5482 0.292,0.67699 0.8269,-0.07758 0.8619,0.02108 0.2122,0.5832 -0.6466,0.57017 -0.6833,0.47207 0.2114,0.70631 0.8303,0.01894 0.8536,0.12099 0.1432,0.60391 -0.7086,0.49123 -0.7334,0.38955 0.128,0.72609 0.8225,0.1152 0.8338,0.21928 0.072,0.61643 -0.7607,0.40566 -0.7738,0.30177 z"
         id="path252" />
      <circle
         style="fill:none;stroke:#000000;stroke-width:0.264583"
         id="path254"
         cx="0"
         cy="0"
         r="2.5" />
    </g>
  </g>
</svg>
